<?xml version="1.0" encoding="UTF-8"?>
<svg width="128" height="128" viewBox="0 0 128 128" xmlns="http://www.w3.org/2000/svg">
  <defs>
    <linearGradient id="filmGrad" x1="0%" y1="0%" x2="100%" y2="100%">
      <stop offset="0%" style="stop-color:#6366f1;stop-opacity:1" />
      <stop offset="50%" style="stop-color:#8b5cf6;stop-opacity:1" />
      <stop offset="100%" style="stop-color:#ec4899;stop-opacity:1" />
    </linearGradient>
    <linearGradient id="cursorGrad" x1="0%" y1="0%" x2="100%" y2="100%">
      <stop offset="0%" style="stop-color:#f8f9fa;stop-opacity:1" />
      <stop offset="100%" style="stop-color:#e2e8f0;stop-opacity:1" />
    </linearGradient>
  </defs>
  
  <!-- Film strip background -->
  <rect x="20" y="10" width="88" height="108" rx="8" ry="8" fill="url(#filmGrad)" stroke="#1e293b" stroke-width="2"/>
  
  <!-- Film perforations (top) -->
  <rect x="28" y="20" width="8" height="6" rx="2" fill="#0f172a"/>
  <rect x="44" y="20" width="8" height="6" rx="2" fill="#0f172a"/>
  <rect x="60" y="20" width="8" height="6" rx="2" fill="#0f172a"/>
  <rect x="76" y="20" width="8" height="6" rx="2" fill="#0f172a"/>
  <rect x="92" y="20" width="8" height="6" rx="2" fill="#0f172a"/>
  
  <!-- Film perforations (bottom) -->
  <rect x="28" y="102" width="8" height="6" rx="2" fill="#0f172a"/>
  <rect x="44" y="102" width="8" height="6" rx="2" fill="#0f172a"/>
  <rect x="60" y="102" width="8" height="6" rx="2" fill="#0f172a"/>
  <rect x="76" y="102" width="8" height="6" rx="2" fill="#0f172a"/>
  <rect x="92" y="102" width="8" height="6" rx="2" fill="#0f172a"/>
  
  <!-- Film frames -->
  <rect x="28" y="35" width="72" height="20" rx="3" fill="#1e293b" stroke="#334155" stroke-width="1"/>
  <rect x="28" y="60" width="72" height="20" rx="3" fill="#1e293b" stroke="#334155" stroke-width="1"/>
  <rect x="28" y="85" width="72" height="12" rx="3" fill="#1e293b" stroke="#334155" stroke-width="1"/>
  
  <!-- Terminal cursor -->
  <rect x="35" y="42" width="3" height="12" fill="url(#cursorGrad)"/>
  <rect x="45" y="67" width="3" height="12" fill="url(#cursorGrad)"/>
  
  <!-- Terminal text simulation -->
  <rect x="50" y="44" width="12" height="2" rx="1" fill="#64748b"/>
  <rect x="65" y="44" width="8" height="2" rx="1" fill="#64748b"/>
  <rect x="50" y="48" width="16" height="2" rx="1" fill="#64748b"/>
  
  <rect x="52" y="69" width="14" height="2" rx="1" fill="#64748b"/>
  <rect x="70" y="69" width="10" height="2" rx="1" fill="#64748b"/>
  <rect x="52" y="73" width="18" height="2" rx="1" fill="#64748b"/>
  
  <!-- Record dot indicator -->
  <circle cx="90" cy="45" r="4" fill="#ef4444"/>
  <circle cx="90" cy="45" r="2" fill="#fca5a5" opacity="0.8"/>
  
  <!-- Movie clapper accent -->
  <rect x="85" y="30" width="20" height="3" fill="#0f172a" transform="rotate(15 95 31.5)"/>
  <rect x="85" y="25" width="20" height="3" fill="#f8f9fa" transform="rotate(15 95 26.5)"/>
</svg>